<?xml version="1.0" encoding="UTF-8" standalone="no"?>
<svg
   width="64"
   height="64"
   version="1.1"
   viewBox="0 0 16.933 16.933"
   id="svg7"
   sodipodi:docname="gitkraken.svg"
   inkscape:version="1.4.4 (dcaf3e7d9e, 2026-05-05)"
   xmlns:inkscape="http://www.inkscape.org/namespaces/inkscape"
   xmlns:sodipodi="http://sodipodi.sourceforge.net/DTD/sodipodi-0.dtd"
   xmlns="http://www.w3.org/2000/svg"
   xmlns:svg="http://www.w3.org/2000/svg"
   xmlns:rdf="http://www.w3.org/1999/02/22-rdf-syntax-ns#"
   xmlns:cc="http://creativecommons.org/ns#"
   xmlns:dc="http://purl.org/dc/elements/1.1/">
  <sodipodi:namedview
     id="namedview7"
     pagecolor="#9c4444"
     bordercolor="#000000"
     borderopacity="0.25"
     inkscape:showpageshadow="2"
     inkscape:pageopacity="0.0"
     inkscape:pagecheckerboard="0"
     inkscape:deskcolor="#d1d1d1"
     inkscape:zoom="6.15625"
     inkscape:cx="74.477157"
     inkscape:cy="-11.532995"
     inkscape:window-width="2560"
     inkscape:window-height="1392"
     inkscape:window-x="0"
     inkscape:window-y="0"
     inkscape:window-maximized="1"
     inkscape:current-layer="svg7"
     showgrid="false" />
  <defs
     id="defs2">
    <style
       id="current-color-scheme"
       type="text/css">.ColorScheme-Text {color:#d8dee9}</style>
    <inkscape:path-effect
       effect="offset"
       id="path-effect1"
       is_visible="true"
       lpeversion="1.3"
       linejoin_type="round"
       unit="px"
       offset="-0.53701443"
       miter_limit="4"
       attempt_force_join="false"
       update_on_knot_move="true" />
  </defs>
  <metadata
     id="metadata2">
    <rdf:RDF>
      <cc:Work
         rdf:about="">
        <dc:format>image/svg+xml</dc:format>
        <dc:type
           rdf:resource="http://purl.org/dc/dcmitype/StillImage" />
      </cc:Work>
    </rdf:RDF>
  </metadata>
  <path
     id="path5"
     style="fill:currentColor"
     d="m 8.4665005,1.4551795 c -3.884001,0 -7.010832,3.1270422 -7.010832,7.0113205 0,3.884278 3.126831,7.01132 7.010832,7.01132 3.8840015,0 7.0108305,-3.127042 7.0108305,-7.01132 0,-3.8842783 -3.126829,-7.0113205 -7.0108305,-7.0113205 z m -2.729804,3.5059047 v 9.748e-4 h 1.345341 c -1.256431,0.6062298 -2.121442,1.7741797 -2.121442,3.2677437 0,1.3950048 0.629598,2.6051253 1.752708,3.2530733 l 4.89e-4,-0.51202 c -0.135811,0 -0.250387,-0.250387 -0.250387,-0.500774 0,-0.250387 0.108029,-0.5007738 0.250387,-0.5007738 C 6.6099095,9.4410223 6.6893525,9.0678728 6.2472515,8.667005 5.9886135,8.4951572 5.9621435,8.4474341 5.9621435,8.1486261 c 0,-0.4507283 0.315825,-1.0993551 0.927213,-1.9023533 0.337601,-0.426885 0.825983,-1.2846995 1.577144,-1.2846995 0.75116,0 1.179915,0.7631653 1.5771445,1.2846995 0.611388,0.8029982 0.927213,1.451625 0.927213,1.9023533 0,0.298808 -0.02647,0.3465311 -0.285108,0.5183789 -0.442102,0.4008678 -0.36266,0.7740173 -0.466541,1.302305 0.142358,0 0.250387,0.250387 0.250387,0.500774 0,0.250387 -0.114576,0.500773 -0.250387,0.500773 l 5.01e-4,0.512022 c 1.12311,-0.647947 1.752707,-1.8580682 1.752707,-3.2530729 0,-1.4935641 -0.865012,-2.661514 -2.1214415,-3.2677438 h 1.3453395 v -9.748e-4 c 0.935712,0.824783 1.527262,1.9170491 1.527262,3.2682328 0,1.8252507 -0.950908,3.3869527 -2.503868,4.0971507 l -0.07238,0.03521 c -0.2171195,0.09458 -0.4454205,0.167249 -0.6787825,0.227402 v 0.765341 C 11.876561,12.826118 13.46934,10.695325 13.475226,8.2298089 13.474451,7.7209166 13.399836,7.2017348 13.253693,6.714284 h 0.77659 c 0.128401,0.490541 0.194451,1.0084575 0.196103,1.5155249 -0.0012,3.1726141 -2.342862,5.7977901 -5.5089985,5.9960791 v -2.504847 h -5e-4 v 9.75e-4 c -0.06285,-0.0014 -0.155978,0.0032 -0.249409,0.0059 -7.26e-4,2e-5 -0.0012,-2e-5 -0.002,0 -0.09342,-0.0026 -0.186565,-0.0073 -0.249409,-0.0059 v -9.75e-4 h -5e-4 v 2.504845 c -3.166102,-0.198288 -5.507754,-2.823465 -5.508953,-5.9960799 0.0017,-0.5070675 0.0677,-1.0249839 0.196104,-1.515525 h 0.77659 c -0.146149,0.4874509 -0.220757,1.0066328 -0.221533,1.515525 0.0059,2.4655159 1.598666,4.5963089 4.006677,5.1246159 V 12.58908 c -0.233361,-0.06015 -0.461662,-0.132819 -0.678783,-0.227402 l -0.07238,-0.03521 c -1.552957,-0.710198 -2.503865,-2.271901 -2.503865,-4.0971509 0,-1.3511838 0.59155,-2.4434499 1.527262,-3.2682329 z m 1.603063,5.2586128 c -0.207429,0 -0.375561,0.168132 -0.37558,0.37558 1.9e-5,0.207448 0.168151,0.37558 0.37558,0.37558 0.207428,0 0.375561,-0.168132 0.37558,-0.37558 -1.9e-5,-0.207448 -0.168152,-0.37558 -0.37558,-0.37558 z m 2.253481,0 c -0.207428,0 -0.37556,0.168132 -0.37558,0.37558 2e-5,0.207448 0.168152,0.37558 0.37558,0.37558 0.207429,0 0.375561,-0.168132 0.375581,-0.37558 -2e-5,-0.207448 -0.168152,-0.37558 -0.375581,-0.37558 z"
     class="ColorScheme-Text" />
</svg>
