<?xml version="1.0" encoding="UTF-8" standalone="no"?>
<svg
   width="64"
   height="64"
   version="1.1"
   viewBox="0 0 16.933 16.933"
   id="svg7"
   sodipodi:docname="signal-desktop.svg"
   inkscape:version="1.4.4 (dcaf3e7d9e, 2026-05-05)"
   xmlns:inkscape="http://www.inkscape.org/namespaces/inkscape"
   xmlns:sodipodi="http://sodipodi.sourceforge.net/DTD/sodipodi-0.dtd"
   xmlns="http://www.w3.org/2000/svg"
   xmlns:svg="http://www.w3.org/2000/svg"
   xmlns:rdf="http://www.w3.org/1999/02/22-rdf-syntax-ns#"
   xmlns:cc="http://creativecommons.org/ns#"
   xmlns:dc="http://purl.org/dc/elements/1.1/">
  <sodipodi:namedview
     id="namedview7"
     pagecolor="#9c4444"
     bordercolor="#000000"
     borderopacity="0.25"
     inkscape:showpageshadow="2"
     inkscape:pageopacity="0.0"
     inkscape:pagecheckerboard="0"
     inkscape:deskcolor="#d1d1d1"
     inkscape:zoom="6.15625"
     inkscape:cx="15.837563"
     inkscape:cy="29.725888"
     inkscape:window-width="1183"
     inkscape:window-height="941"
     inkscape:window-x="35"
     inkscape:window-y="32"
     inkscape:window-maximized="0"
     inkscape:current-layer="svg7"
     showgrid="false" />
  <defs
     id="defs2">
    <style
       id="current-color-scheme"
       type="text/css">.ColorScheme-Text {color:#d8dee9}</style>
  </defs>
  <metadata
     id="metadata2">
    <rdf:RDF>
      <cc:Work
         rdf:about="">
        <dc:format>image/svg+xml</dc:format>
        <dc:type
           rdf:resource="http://purl.org/dc/dcmitype/StillImage" />
      </cc:Work>
    </rdf:RDF>
  </metadata>
  <path
     id="path5"
     d="m 8.4665002,1.4551796 a 7.0660962,7.0660962 0 0 0 -1.069843,0.08109 l 0.100351,0.649608 c 0.316167,-0.0482 0.63985,-0.07339 0.969492,-0.07339 a 6.4087848,6.4087848 0 0 1 0.969491,0.0736 l 0.100351,-0.649822 c -0.348813,-0.05335 -0.70613,-0.08109 -1.069842,-0.08109 z m -1.66382,0.198563 a 6.9674993,6.9674993 0 0 0 -1.976641,0.8195 l 0.34128,0.561881 a 6.3211436,6.3211436 0 0 1 1.791344,-0.742685 z m 3.3276388,0 -0.1559828,0.638696 a 6.3211436,6.3211436 0 0 1 1.7913438,0.742685 l 0.34128,-0.561881 a 6.9674993,6.9674993 0 0 0 -1.976641,-0.8195 z m -1.6638188,1.11606 c -3.146221,0 -5.696698,2.550477 -5.696698,5.696698 0,0.997908 0.256464,1.9359114 0.70738,2.7516344 a 0.3615212,0.3615212 0 0 1 0.03723,0.257618 l -0.591195,2.534029 2.534029,-0.591409 a 0.3615212,0.3615212 0 0 1 0.257618,0.03744 c 0.815614,0.450806 1.753618,0.70738 2.751636,0.70738 3.1462198,0 5.6966968,-2.550477 5.6966968,-5.6966984 0,-3.14622 -2.550477,-5.696697 -5.6966968,-5.696696 z m -4.143501,0.04023 a 7.055141,7.055141 0 0 0 -1.512971,1.512971 l 0.530214,0.388353 a 6.3868743,6.3868743 0 0 1 1.37111,-1.37111 z m 8.2870008,0 -0.388353,0.530214 a 6.3868743,6.3868743 0 0 1 1.37111,1.37111 l 0.530214,-0.388353 A 7.055141,7.055141 0 0 0 12.61,2.8100326 Z M 2.4732422,4.8260436 a 6.9674993,6.9674993 0 0 0 -0.8195,1.976641 l 0.638696,0.155983 a 6.3211436,6.3211436 0 0 1 0.742685,-1.791344 z m 11.9865158,0 -0.561882,0.34128 a 6.3211436,6.3211436 0 0 1 0.742685,1.791344 l 0.638696,-0.155983 A 6.9674993,6.9674993 0 0 0 14.459758,4.8260436 Z M 1.5362742,7.3966616 c -0.05335,0.348813 -0.08109,0.70613 -0.08109,1.069843 a 7.0660962,7.0660962 0 0 0 0.08109,1.069842 l 0.649608,-0.100351 c -0.04831,-0.315948 -0.07339,-0.63974 -0.07339,-0.969491 a 6.4087848,6.4087848 0 0 1 0.0736,-0.969492 z m 13.8604518,0 -0.649823,0.100351 a 6.3978296,6.3978296 0 0 1 0.07361,0.969492 c 0,0.329751 -0.02518,0.653434 -0.07361,0.969491 l 0.649823,0.100351 c 0.05335,-0.348813 0.08109,-0.70613 0.08109,-1.069842 0,-0.363713 -0.02774,-0.72103 -0.08109,-1.069843 z M 2.2924382,9.9743403 1.6537422,10.130323 a 6.9674993,6.9674993 0 0 0 0.561454,1.514469 l -0.155342,0.665443 0.640194,0.149136 0.20969,-0.899096 -0.108911,-0.213969 A 6.3101883,6.3101883 0 0 1 2.2924382,9.9743403 Z m 12.3481228,0 a 6.3211436,6.3211436 0 0 1 -0.742685,1.7913447 l 0.561882,0.341279 a 6.9674993,6.9674993 0 0 0 0.819499,-1.976641 z m -1.047804,2.2473117 a 6.3868743,6.3868743 0 0 1 -1.37111,1.37111 L 12.61,14.122975 a 7.055141,7.055141 0 0 0 1.512971,-1.512757 z m -11.6621388,0.643189 -0.266177,1.140666 c -0.177146,0.759085 0.503861,1.440306 1.263056,1.26327 l 1.140666,-0.26639 -0.14935,-0.639981 -1.140666,0.266178 c -0.284616,0.06639 -0.540115,-0.189111 -0.473727,-0.473727 l 0.266177,-1.140666 z M 11.76568,13.89788 a 6.3211436,6.3211436 0 0 1 -1.7913438,0.742685 l 0.1559828,0.638697 a 6.9674993,6.9674993 0 0 0 1.976641,-0.8195 z m -6.3929508,0.125172 -0.899096,0.209904 0.149136,0.640193 0.665442,-0.155341 a 6.9565444,6.9565444 0 0 0 1.514469,0.561454 l 0.155983,-0.638697 a 6.299233,6.299233 0 0 1 -1.371965,-0.508392 z m 4.063262,0.723855 a 6.3978296,6.3978296 0 0 1 -0.969491,0.07361 c -0.329751,0 -0.653544,-0.02508 -0.969492,-0.07339 l -0.100351,0.649609 c 0.348813,0.05335 0.70613,0.08109 1.069843,0.08109 0.363712,0 0.721029,-0.02774 1.069842,-0.08109 z"
     style="fill:currentColor"
     class="ColorScheme-Text" />
</svg>
