<?xml version="1.0" encoding="UTF-8" standalone="no"?>
<svg
   width="64"
   height="64"
   version="1.1"
   viewBox="0 0 16.933 16.933"
   id="svg7"
   sodipodi:docname="ticktick.svg"
   inkscape:version="1.4.4 (dcaf3e7d9e, 2026-05-05)"
   xmlns:inkscape="http://www.inkscape.org/namespaces/inkscape"
   xmlns:sodipodi="http://sodipodi.sourceforge.net/DTD/sodipodi-0.dtd"
   xmlns="http://www.w3.org/2000/svg"
   xmlns:svg="http://www.w3.org/2000/svg"
   xmlns:rdf="http://www.w3.org/1999/02/22-rdf-syntax-ns#"
   xmlns:cc="http://creativecommons.org/ns#"
   xmlns:dc="http://purl.org/dc/elements/1.1/">
  <sodipodi:namedview
     id="namedview7"
     pagecolor="#9c4444"
     bordercolor="#000000"
     borderopacity="0.25"
     inkscape:showpageshadow="2"
     inkscape:pageopacity="0.0"
     inkscape:pagecheckerboard="0"
     inkscape:deskcolor="#d1d1d1"
     inkscape:zoom="4.3531262"
     inkscape:cx="89.935366"
     inkscape:cy="34.457995"
     inkscape:window-width="2560"
     inkscape:window-height="1388"
     inkscape:window-x="0"
     inkscape:window-y="0"
     inkscape:window-maximized="1"
     inkscape:current-layer="svg7"
     showgrid="false" />
  <defs
     id="defs2">
    <style
       id="current-color-scheme"
       type="text/css">.ColorScheme-Text {color:#d8dee9}</style>
  </defs>
  <metadata
     id="metadata2">
    <rdf:RDF>
      <cc:Work
         rdf:about="">
        <dc:format>image/svg+xml</dc:format>
        <dc:type
           rdf:resource="http://purl.org/dc/dcmitype/StillImage" />
      </cc:Work>
    </rdf:RDF>
  </metadata>
  <path
     style="fill:currentColor"
     class="ColorScheme-Text"
     d="m 8.4664995,1.4551794 c -3.861861,0 -7.01132,3.1494598 -7.01132,7.0113205 0,3.8618611 3.149459,7.0113211 7.01132,7.0113211 3.8618625,0 7.0113215,-3.14946 7.0113215,-7.0113211 h -1.752829 c 0,2.9145621 -2.34393,5.2584911 -5.2584925,5.2584911 -2.914562,0 -5.258491,-2.343929 -5.258491,-5.2584911 0,-2.9145622 2.343929,-5.2584905 5.258491,-5.2584905 z M 12.886233,2.8964714 8.3329835,8.158385 6.3559145,6.7085346 5.3185945,8.1207265 7.9478385,10.049867 A 0.87650269,0.87650269 0 0 0 9.1289465,9.9163496 L 14.21284,4.0450536 Z"
     id="path5" />
</svg>
